<svg width="23" height="23" viewBox="0 0 23 23" fill="none" xmlns="http://www.w3.org/2000/svg">
<path fill-rule="evenodd" clip-rule="evenodd" d="M6.4011 6.1982H13.0648C13.6277 6.1982 14.0966 6.66205 14.0966 7.21796C14.0966 7.77393 13.6277 8.23776 13.0648 8.23776H6.4011V6.1982ZM6.4011 14.263H14.5662C15.1291 14.263 15.5987 14.7262 15.5987 15.2828C15.5987 15.8387 15.1291 16.3019 14.5662 16.3019H6.4011V14.263ZM3.75 20.4738V2.05H10.3191C12.3607 2.05 14.0733 2.49015 15.5048 3.39414C16.9122 4.2751 17.9913 5.4337 18.6954 6.84691C19.3995 8.26078 19.7745 9.74376 19.7745 11.2734C19.7745 12.8261 19.4228 14.3091 18.6954 15.6999C17.9913 17.1131 16.9122 18.2487 15.5048 19.1527C14.0966 20.033 12.3607 20.4968 10.3191 20.4968H4.97032C4.61793 20.4738 3.77331 20.4738 3.75 20.4738ZM6.4011 10.2306H11.0232C11.5867 10.2306 12.0557 10.6938 12.0557 11.2504C12.0557 11.8063 11.5867 12.2702 11.0232 12.2702H6.4011V10.2306Z" fill="white"/>
</svg>
