<svg width="28" height="28" viewBox="0 0 28 28" fill="none" xmlns="http://www.w3.org/2000/svg">
<g clip-path="url(#clip0_339_2)">
<path d="M18.6139 16.1213C17.1066 19.7601 15.1074 22.7344 13.1386 24.611C12.153 25.5503 11.2137 26.1778 10.3865 26.4986C9.56659 26.8166 8.92314 26.8117 8.42612 26.6059C7.92909 26.4 7.47065 25.9484 7.11574 25.1438C6.75772 24.3321 6.53719 23.2242 6.50451 21.8631C6.43923 19.144 7.12873 15.6272 8.63599 11.9883C10.1433 8.34943 12.1425 5.37512 14.1113 3.4986C15.0969 2.55924 16.0362 1.93177 16.8634 1.61097C17.6833 1.29295 18.3267 1.29783 18.8238 1.50371C19.3208 1.70959 19.7792 2.16112 20.1341 2.96577C20.4922 3.77748 20.7127 4.88539 20.7454 6.24651C20.8106 8.96559 20.1212 12.4824 18.6139 16.1213Z" stroke="white" stroke-width="2.2"/>
<path d="M18.8534 12.0134C20.3607 15.6523 21.0502 19.1691 20.9849 21.8882C20.9522 23.2493 20.7317 24.3572 20.3737 25.1689C20.0188 25.9736 19.5603 26.4251 19.0633 26.631C18.5663 26.8368 17.9228 26.8417 17.1029 26.5237C16.2758 26.2029 15.3364 25.5754 14.3509 24.6361C12.382 22.7596 10.3828 19.7852 8.87555 16.1464C7.36828 12.5075 6.67879 8.99071 6.74407 6.27163C6.77674 4.9105 6.99727 3.8026 7.35529 2.99089C7.71021 2.18624 8.16864 1.7347 8.66567 1.52883C9.1627 1.32295 9.80615 1.31807 10.6261 1.63609C11.4532 1.95689 12.3925 2.58436 13.3781 3.52371C15.347 5.40023 17.3462 8.37455 18.8534 12.0134Z" stroke="white" stroke-width="2.2"/>
</g>
<defs>
<clipPath id="clip0_339_2">
<rect width="28" height="28" fill="white"/>
</clipPath>
</defs>
</svg>
